<mxfile host="Electron" agent="Mozilla/5.0 (X11; Linux x86_64) AppleWebKit/537.36 (KHTML, like Gecko) draw.io/25.0.2 Chrome/128.0.6613.186 Electron/32.2.5 Safari/537.36" version="25.0.2">
  <diagram name="Page-1" id="MzHxd3pp6_mDPO7k620W">
    <mxGraphModel dx="1368" dy="838" grid="1" gridSize="10" guides="1" tooltips="1" connect="1" arrows="1" fold="1" page="1" pageScale="1" pageWidth="850" pageHeight="1100" math="0" shadow="0">
      <root>
        <mxCell id="0" />
        <mxCell id="1" parent="0" />
        <mxCell id="-TQKbwv3miXOgMrpPxKx-30" value="" style="rounded=0;whiteSpace=wrap;html=1;fillColor=#008a00;fontColor=#ffffff;strokeColor=#005700;opacity=20;" vertex="1" parent="1">
          <mxGeometry x="190" y="200" width="460" height="80" as="geometry" />
        </mxCell>
        <mxCell id="-TQKbwv3miXOgMrpPxKx-29" value="" style="rounded=0;whiteSpace=wrap;html=1;fillColor=#a0522d;fontColor=#ffffff;strokeColor=#6D1F00;opacity=20;" vertex="1" parent="1">
          <mxGeometry x="570" y="290" width="290" height="280" as="geometry" />
        </mxCell>
        <mxCell id="-TQKbwv3miXOgMrpPxKx-28" value="" style="rounded=0;whiteSpace=wrap;html=1;fillColor=#76608a;strokeColor=#432D57;fontColor=#ffffff;opacity=20;" vertex="1" parent="1">
          <mxGeometry x="110" y="290" width="160" height="280" as="geometry" />
        </mxCell>
        <mxCell id="-TQKbwv3miXOgMrpPxKx-27" value="" style="edgeStyle=orthogonalEdgeStyle;rounded=0;orthogonalLoop=1;jettySize=auto;html=1;" edge="1" parent="1" source="-TQKbwv3miXOgMrpPxKx-1" target="-TQKbwv3miXOgMrpPxKx-26">
          <mxGeometry relative="1" as="geometry" />
        </mxCell>
        <mxCell id="-TQKbwv3miXOgMrpPxKx-1" value="&lt;b&gt;&lt;font style=&quot;font-size: 29px;&quot;&gt;Bindings&lt;/font&gt;&lt;/b&gt;" style="rounded=0;whiteSpace=wrap;html=1;fillColor=#1ba1e2;fontColor=#ffffff;strokeColor=#006EAF;" vertex="1" parent="1">
          <mxGeometry x="330" y="320" width="180" height="160" as="geometry" />
        </mxCell>
        <mxCell id="-TQKbwv3miXOgMrpPxKx-15" style="edgeStyle=orthogonalEdgeStyle;rounded=0;orthogonalLoop=1;jettySize=auto;html=1;entryX=0.5;entryY=0;entryDx=0;entryDy=0;" edge="1" parent="1" source="-TQKbwv3miXOgMrpPxKx-2" target="-TQKbwv3miXOgMrpPxKx-1">
          <mxGeometry relative="1" as="geometry" />
        </mxCell>
        <mxCell id="-TQKbwv3miXOgMrpPxKx-2" value="&lt;b&gt;&lt;font style=&quot;font-size: 15px;&quot;&gt;Devices&lt;/font&gt;&lt;/b&gt;" style="rounded=0;whiteSpace=wrap;html=1;fillColor=#008a00;fontColor=#ffffff;strokeColor=#005700;" vertex="1" parent="1">
          <mxGeometry x="360" y="210" width="120" height="60" as="geometry" />
        </mxCell>
        <mxCell id="-TQKbwv3miXOgMrpPxKx-16" style="edgeStyle=orthogonalEdgeStyle;rounded=0;orthogonalLoop=1;jettySize=auto;html=1;entryX=0;entryY=0.5;entryDx=0;entryDy=0;" edge="1" parent="1" source="-TQKbwv3miXOgMrpPxKx-3" target="-TQKbwv3miXOgMrpPxKx-1">
          <mxGeometry relative="1" as="geometry" />
        </mxCell>
        <mxCell id="-TQKbwv3miXOgMrpPxKx-3" value="&lt;b&gt;&lt;font style=&quot;font-size: 15px;&quot;&gt;Pylib&lt;/font&gt;&lt;/b&gt;" style="rounded=0;whiteSpace=wrap;html=1;fillColor=#76608a;fontColor=#ffffff;strokeColor=#432D57;" vertex="1" parent="1">
          <mxGeometry x="130" y="400" width="120" height="60" as="geometry" />
        </mxCell>
        <mxCell id="-TQKbwv3miXOgMrpPxKx-19" style="edgeStyle=orthogonalEdgeStyle;rounded=0;orthogonalLoop=1;jettySize=auto;html=1;entryX=1;entryY=0.5;entryDx=0;entryDy=0;" edge="1" parent="1" source="-TQKbwv3miXOgMrpPxKx-4" target="-TQKbwv3miXOgMrpPxKx-1">
          <mxGeometry relative="1" as="geometry" />
        </mxCell>
        <mxCell id="-TQKbwv3miXOgMrpPxKx-4" value="&lt;font style=&quot;font-size: 15px;&quot;&gt;&lt;b&gt;Core&lt;/b&gt;&lt;/font&gt;" style="rounded=0;whiteSpace=wrap;html=1;fillColor=#a0522d;fontColor=#ffffff;strokeColor=#6D1F00;" vertex="1" parent="1">
          <mxGeometry x="580" y="400" width="120" height="60" as="geometry" />
        </mxCell>
        <mxCell id="-TQKbwv3miXOgMrpPxKx-13" style="edgeStyle=orthogonalEdgeStyle;rounded=0;orthogonalLoop=1;jettySize=auto;html=1;entryX=0;entryY=0.5;entryDx=0;entryDy=0;" edge="1" parent="1" source="-TQKbwv3miXOgMrpPxKx-5" target="-TQKbwv3miXOgMrpPxKx-2">
          <mxGeometry relative="1" as="geometry" />
        </mxCell>
        <mxCell id="-TQKbwv3miXOgMrpPxKx-5" value="Two_wheeled" style="rounded=0;whiteSpace=wrap;html=1;fillColor=#008a00;fontColor=#ffffff;strokeColor=#005700;" vertex="1" parent="1">
          <mxGeometry x="200" y="210" width="120" height="60" as="geometry" />
        </mxCell>
        <mxCell id="-TQKbwv3miXOgMrpPxKx-14" style="edgeStyle=orthogonalEdgeStyle;rounded=0;orthogonalLoop=1;jettySize=auto;html=1;entryX=1;entryY=0.5;entryDx=0;entryDy=0;" edge="1" parent="1" source="-TQKbwv3miXOgMrpPxKx-6" target="-TQKbwv3miXOgMrpPxKx-2">
          <mxGeometry relative="1" as="geometry" />
        </mxCell>
        <mxCell id="-TQKbwv3miXOgMrpPxKx-6" value="Create3" style="rounded=0;whiteSpace=wrap;html=1;fillColor=#008a00;fontColor=#ffffff;strokeColor=#005700;" vertex="1" parent="1">
          <mxGeometry x="520" y="210" width="120" height="60" as="geometry" />
        </mxCell>
        <mxCell id="-TQKbwv3miXOgMrpPxKx-18" style="edgeStyle=orthogonalEdgeStyle;rounded=0;orthogonalLoop=1;jettySize=auto;html=1;entryX=0.5;entryY=1;entryDx=0;entryDy=0;" edge="1" parent="1" source="-TQKbwv3miXOgMrpPxKx-7" target="-TQKbwv3miXOgMrpPxKx-3">
          <mxGeometry relative="1" as="geometry" />
        </mxCell>
        <mxCell id="-TQKbwv3miXOgMrpPxKx-7" value="Helpers" style="rounded=0;whiteSpace=wrap;html=1;fillColor=#76608a;fontColor=#ffffff;strokeColor=#432D57;" vertex="1" parent="1">
          <mxGeometry x="130" y="500" width="120" height="60" as="geometry" />
        </mxCell>
        <mxCell id="-TQKbwv3miXOgMrpPxKx-17" style="edgeStyle=orthogonalEdgeStyle;rounded=0;orthogonalLoop=1;jettySize=auto;html=1;entryX=0.5;entryY=0;entryDx=0;entryDy=0;" edge="1" parent="1" source="-TQKbwv3miXOgMrpPxKx-8" target="-TQKbwv3miXOgMrpPxKx-3">
          <mxGeometry relative="1" as="geometry" />
        </mxCell>
        <mxCell id="-TQKbwv3miXOgMrpPxKx-8" value="Drones" style="rounded=0;whiteSpace=wrap;html=1;fillColor=#76608a;fontColor=#ffffff;strokeColor=#432D57;" vertex="1" parent="1">
          <mxGeometry x="130" y="300" width="120" height="60" as="geometry" />
        </mxCell>
        <mxCell id="-TQKbwv3miXOgMrpPxKx-21" style="edgeStyle=orthogonalEdgeStyle;rounded=0;orthogonalLoop=1;jettySize=auto;html=1;entryX=0.5;entryY=0;entryDx=0;entryDy=0;" edge="1" parent="1" source="-TQKbwv3miXOgMrpPxKx-9" target="-TQKbwv3miXOgMrpPxKx-4">
          <mxGeometry relative="1" as="geometry" />
        </mxCell>
        <mxCell id="-TQKbwv3miXOgMrpPxKx-9" value="Motor" style="rounded=0;whiteSpace=wrap;html=1;fillColor=#a0522d;fontColor=#ffffff;strokeColor=#6D1F00;" vertex="1" parent="1">
          <mxGeometry x="580" y="300" width="120" height="60" as="geometry" />
        </mxCell>
        <mxCell id="-TQKbwv3miXOgMrpPxKx-22" style="edgeStyle=orthogonalEdgeStyle;rounded=0;orthogonalLoop=1;jettySize=auto;html=1;entryX=1;entryY=0.5;entryDx=0;entryDy=0;" edge="1" parent="1" source="-TQKbwv3miXOgMrpPxKx-10" target="-TQKbwv3miXOgMrpPxKx-4">
          <mxGeometry relative="1" as="geometry" />
        </mxCell>
        <mxCell id="-TQKbwv3miXOgMrpPxKx-10" value="Sensor" style="rounded=0;whiteSpace=wrap;html=1;fillColor=#a0522d;fontColor=#ffffff;strokeColor=#6D1F00;" vertex="1" parent="1">
          <mxGeometry x="730" y="360" width="120" height="60" as="geometry" />
        </mxCell>
        <mxCell id="-TQKbwv3miXOgMrpPxKx-24" style="edgeStyle=orthogonalEdgeStyle;rounded=0;orthogonalLoop=1;jettySize=auto;html=1;entryX=1;entryY=0.5;entryDx=0;entryDy=0;" edge="1" parent="1" source="-TQKbwv3miXOgMrpPxKx-11" target="-TQKbwv3miXOgMrpPxKx-4">
          <mxGeometry relative="1" as="geometry">
            <Array as="points">
              <mxPoint x="710" y="480" />
              <mxPoint x="710" y="430" />
            </Array>
          </mxGeometry>
        </mxCell>
        <mxCell id="-TQKbwv3miXOgMrpPxKx-11" value="Motion" style="rounded=0;whiteSpace=wrap;html=1;fillColor=#a0522d;fontColor=#ffffff;strokeColor=#6D1F00;" vertex="1" parent="1">
          <mxGeometry x="730" y="450" width="120" height="60" as="geometry" />
        </mxCell>
        <mxCell id="-TQKbwv3miXOgMrpPxKx-20" style="edgeStyle=orthogonalEdgeStyle;rounded=0;orthogonalLoop=1;jettySize=auto;html=1;entryX=0.5;entryY=1;entryDx=0;entryDy=0;" edge="1" parent="1" source="-TQKbwv3miXOgMrpPxKx-12" target="-TQKbwv3miXOgMrpPxKx-4">
          <mxGeometry relative="1" as="geometry" />
        </mxCell>
        <mxCell id="-TQKbwv3miXOgMrpPxKx-12" value="Kipr" style="rounded=0;whiteSpace=wrap;html=1;fillColor=#a0522d;fontColor=#ffffff;strokeColor=#6D1F00;" vertex="1" parent="1">
          <mxGeometry x="580" y="500" width="120" height="60" as="geometry" />
        </mxCell>
        <mxCell id="-TQKbwv3miXOgMrpPxKx-26" value="&lt;b&gt;&lt;font style=&quot;font-size: 15px;&quot;&gt;LibStp&lt;/font&gt;&lt;/b&gt;" style="rounded=0;whiteSpace=wrap;html=1;fillColor=#d80073;fontColor=#ffffff;strokeColor=#A50040;" vertex="1" parent="1">
          <mxGeometry x="360" y="510" width="120" height="60" as="geometry" />
        </mxCell>
      </root>
    </mxGraphModel>
  </diagram>
</mxfile>
